<?xml version="1.0" standalone="no"?>
<!DOCTYPE svg PUBLIC "-//W3C//DTD SVG 20010904//EN"
 "http://www.w3.org/TR/2001/REC-SVG-20010904/DTD/svg10.dtd">
<svg version="1.0" xmlns="http://www.w3.org/2000/svg"
 width="474.000000pt" height="474.000000pt" viewBox="0 0 474.000000 474.000000"
 preserveAspectRatio="xMidYMid meet">
<metadata>
Created by potrace 1.14, written by Peter Selinger 2001-2017
</metadata>
<g transform="translate(0.000000,474.000000) scale(0.100000,-0.100000)"
fill="#000000" stroke="none">
<path d="M2189 4735 c-2 -1 -35 -6 -74 -9 -156 -14 -395 -70 -565 -133 -569
-212 -1036 -632 -1300 -1168 -129 -263 -205 -522 -238 -808 -9 -81 -8 -436 1
-507 42 -308 105 -526 229 -780 62 -127 205 -361 238 -390 3 -3 19 -23 36 -44
112 -151 347 -368 534 -494 294 -197 662 -337 995 -378 28 -4 72 -10 99 -14
54 -8 446 -5 486 4 14 3 47 8 74 11 27 3 59 8 70 10 12 3 32 7 46 9 91 15 337
86 404 115 23 10 72 31 110 47 38 16 117 55 174 87 293 162 516 354 741 633
102 127 243 375 320 561 38 95 102 299 114 368 3 17 8 39 10 50 3 11 8 40 12
65 4 25 9 54 11 65 19 99 25 421 11 570 -34 375 -167 746 -385 1075 -41 63
-78 117 -81 120 -3 3 -32 37 -64 77 -124 155 -348 358 -518 468 -311 202 -633
322 -1004 376 -72 10 -478 22 -486 14z m1146 -536 c50 -7 93 -15 97 -19 4 -3
1 -37 -7 -75 -7 -39 -16 -83 -19 -100 -3 -16 -8 -41 -11 -55 -2 -14 -7 -36 -9
-50 -3 -19 -97 -499 -121 -620 -4 -18 -63 -325 -70 -360 -3 -14 -9 -50 -15
-80 -6 -30 -12 -66 -15 -80 -3 -14 -8 -38 -10 -55 -3 -16 -8 -37 -10 -45 -2
-8 -6 -28 -9 -44 -3 -16 -10 -52 -15 -80 -14 -67 -21 -107 -25 -131 -2 -11
-31 -159 -64 -330 -34 -170 -64 -325 -67 -344 -3 -19 -7 -37 -9 -40 -2 -3 -7
-28 -10 -55 -4 -27 -10 -54 -13 -58 -4 -8 -87 -3 -102 6 -3 2 -28 7 -56 10
-27 4 -62 9 -77 12 -29 6 -29 3 -7 110 5 28 12 64 15 80 2 16 21 110 40 209
20 99 38 191 41 205 2 14 16 84 30 155 14 72 27 141 29 155 3 14 21 106 40
205 20 99 38 189 40 200 2 11 17 90 33 175 17 85 32 167 35 182 3 15 12 63 20
105 9 43 18 89 21 103 3 14 14 70 24 125 11 55 41 208 66 340 25 132 48 246
51 253 2 9 15 12 36 9 18 -3 74 -11 123 -18z m-746 -895 c6 -5 -21 -154 -28
-158 -3 -2 -60 5 -126 15 -66 10 -123 19 -127 19 -3 0 -5 6 -4 13 2 6 6 35 11
62 4 28 11 59 15 71 l8 20 124 -19 c67 -11 125 -22 127 -23z m-524 -149 c61
-10 113 -20 116 -24 6 -5 -14 -121 -51 -296 -12 -57 -37 -186 -44 -230 -3 -16
-15 -77 -27 -135 -11 -58 -23 -116 -25 -130 -2 -14 -9 -45 -14 -70 -10 -45
-98 -502 -106 -550 -3 -14 -13 -68 -24 -120 -10 -52 -28 -142 -39 -200 -11
-58 -50 -258 -86 -445 -37 -187 -69 -351 -71 -365 -10 -60 -14 -69 -32 -66 -9
2 -42 7 -72 12 -30 4 -57 8 -60 9 -3 1 -29 5 -57 9 -29 4 -53 11 -53 14 0 4 7
43 15 86 8 44 18 93 21 110 2 17 7 38 9 46 2 8 6 26 9 40 2 14 11 61 20 105 9
44 18 91 20 105 3 14 12 59 20 100 8 41 17 87 20 102 2 15 12 63 20 105 9 43
17 89 20 103 2 14 14 75 26 135 12 61 24 121 26 135 3 14 7 34 9 45 11 57 76
394 80 415 2 14 15 79 29 145 13 66 27 136 30 155 3 19 12 64 20 100 8 36 17
83 20 105 4 22 15 83 26 135 11 52 21 107 24 122 9 51 37 193 41 205 2 7 10
11 17 9 7 -3 63 -12 123 -21z m315 -51 c30 -4 57 -8 60 -9 3 -1 29 -5 58 -9
42 -6 52 -11 48 -24 -4 -16 -9 -39 -20 -102 -3 -14 -14 -70 -25 -125 -11 -55
-22 -111 -24 -125 -4 -21 -17 -89 -62 -320 -3 -14 -9 -47 -15 -75 -5 -27 -12
-61 -14 -75 -4 -21 -21 -109 -40 -205 -2 -11 -18 -94 -36 -185 -17 -90 -33
-167 -36 -171 -2 -4 -21 -3 -41 1 -43 9 -95 17 -169 26 l-50 6 13 72 c7 39 15
80 17 91 2 11 22 115 45 230 22 116 43 228 47 250 3 22 8 43 10 46 2 3 6 21 9
40 3 19 17 93 30 164 14 72 27 141 30 155 3 14 16 81 30 150 13 69 27 140 30
159 8 45 13 53 33 47 10 -2 42 -8 72 -12z m338 -54 c28 -5 73 -12 99 -15 92
-11 96 -13 88 -43 -4 -15 -9 -38 -11 -52 -2 -14 -9 -47 -15 -75 -5 -27 -12
-66 -15 -85 -3 -19 -9 -51 -14 -70 -5 -19 -12 -53 -15 -75 -4 -22 -8 -47 -10
-55 -2 -8 -7 -31 -10 -50 -3 -19 -14 -78 -25 -130 -17 -84 -101 -515 -114
-580 -2 -14 -12 -67 -21 -117 -10 -51 -21 -91 -25 -88 -4 3 -27 7 -51 10 -24
3 -54 7 -66 9 -11 3 -43 8 -70 12 -70 10 -73 14 -56 85 8 34 25 118 38 188 13
69 27 137 30 151 3 14 8 39 10 55 3 17 14 75 25 130 11 55 22 112 24 128 3 15
7 35 10 45 3 9 7 34 11 55 3 22 12 69 20 105 8 37 24 117 35 177 28 145 29
151 34 178 20 111 22 117 35 117 5 0 31 -4 59 -10z"/>
</g>
</svg>
